<svg width="16" height="14" viewBox="0 0 16 14" fill="none" xmlns="http://www.w3.org/2000/svg">
<path fill-rule="evenodd" clip-rule="evenodd" d="M14.4976 6.91309C14.4976 4.01359 12.1471 1.66309 9.2476 1.66309C6.34811 1.66309 3.9976 4.01359 3.9976 6.91309C3.9976 9.81258 6.34811 12.1631 9.2476 12.1631C12.1471 12.1631 14.4976 9.81258 14.4976 6.91309ZM9.2476 0.163086C12.9755 0.163086 15.9976 3.18516 15.9976 6.91309C15.9976 10.641 12.9755 13.6631 9.2476 13.6631C7.19341 13.6631 5.35353 12.7455 4.1155 11.2978L1.4952 13.6214L0.5 12.499L3.26689 10.0455C2.77557 9.10936 2.4976 8.04369 2.4976 6.91309C2.4976 3.18516 5.51968 0.163086 9.2476 0.163086Z" fill="#1D1C1B"/>
</svg>
